HIERARCHY
ROOT Hips
{
    OFFSET 0.000000 0.000000 0.000000
    CHANNELS 6 Xposition Yposition Zposition Zrotation Xrotation Yrotation
    JOINT Spine
    {
        OFFSET -0.000000 7.236184 0.000000
        CHANNELS 3 Zrotation Xrotation Yrotation
        JOINT Spine1
        {
            OFFSET -0.000000 20.420147 0.000000
            CHANNELS 3 Zrotation Xrotation Yrotation
            JOINT Neck
            {
                OFFSET -0.000000 20.336288 1.848754
                CHANNELS 3 Zrotation Xrotation Yrotation
                JOINT Head
                {
                    OFFSET -0.000000 12.354461 -1.764923
                    CHANNELS 3 Zrotation Xrotation Yrotation
                    End Site
                    {
                        OFFSET -0.000000 22.061537 0.000000
                    }
                }
            }
            JOINT LeftShoulder
            {
                OFFSET 3.573296 18.396038 -0.314103
                CHANNELS 3 Zrotation Xrotation Yrotation
                JOINT LeftArm
                {
                    OFFSET 10.880760 0.000000 0.000000
                    CHANNELS 3 Zrotation Xrotation Yrotation
                    JOINT LeftForeArm
                    {
                        OFFSET 27.185530 0.000000 0.000000
                        CHANNELS 3 Zrotation Xrotation Yrotation
                        JOINT LeftHand
                        {
                            OFFSET 27.825975 0.000000 0.000000
                            CHANNELS 3 Zrotation Xrotation Yrotation
                            End Site
                            {
                                OFFSET 13.236923 0.000000 0.000000
                            }
                        }
                    }
                }
            }
            JOINT RightShoulder
            {
                OFFSET -3.474926 18.396038 -0.314103
                CHANNELS 3 Zrotation Xrotation Yrotation
                JOINT RightArm
                {
                    OFFSET -10.880760 0.000000 0.000000
                    CHANNELS 3 Zrotation Xrotation Yrotation
                    JOINT RightForeArm
                    {
                        OFFSET -27.185530 0.000000 0.000000
                        CHANNELS 3 Zrotation Xrotation Yrotation
                        JOINT RightHand
                        {
                            OFFSET -27.825975 0.000000 0.000000
                            CHANNELS 3 Zrotation Xrotation Yrotation
                            End Site
                            {
                                OFFSET -13.236923 0.000000 0.000000
                            }
                        }
                    }
                }
            }
        }
    }
    JOINT LeftUpLeg
    {
        OFFSET 8.824615 0.000000 0.000000
        CHANNELS 3 Zrotation Xrotation Yrotation
        JOINT LeftLeg
        {
            OFFSET -0.000000 -35.111282 0.000000
            CHANNELS 3 Zrotation Xrotation Yrotation
            JOINT LeftFoot
            {
                OFFSET -0.000000 -42.324711 0.000000
                CHANNELS 3 Zrotation Xrotation Yrotation
                JOINT LeftToeBase
                {
                    OFFSET -0.000000 -5.735999 13.236923
                    CHANNELS 3 Zrotation Xrotation Yrotation
                    End Site
                    {
                        OFFSET -0.000000 0.000000 3.529846
                    }
                }
            }
        }
    }
    JOINT RightUpLeg
    {
        OFFSET -8.824615 0.000000 0.000000
        CHANNELS 3 Zrotation Xrotation Yrotation
        JOINT RightLeg
        {
            OFFSET -0.000000 -35.111282 0.000000
            CHANNELS 3 Zrotation Xrotation Yrotation
            JOINT RightFoot
            {
                OFFSET -0.000000 -42.324711 0.000000
                CHANNELS 3 Zrotation Xrotation Yrotation
                JOINT RightToeBase
                {
                    OFFSET -0.000000 -5.735999 13.236923
                    CHANNELS 3 Zrotation Xrotation Yrotation
                    End Site
                    {
                        OFFSET -0.000000 0.000000 3.529846
                    }
                }
            }
        }
    }
}
MOTION
Frames:    4
Frame Time:    0.008333
-6.534688    81.327423    111.560143    -0.274939    -21.571829    176.273743    -0.558364    -6.518433    -1.932494    4.395883    4.796521    -2.084908    7.144092    8.260946    2.771077    -2.145163    -7.174564    1.914964    3.488635    8.226932    -9.406021    -32.023308    29.009966    -61.836494    13.344100    -2.871690    -29.911579    15.325047    0.212422    -3.690325    7.471073    17.412035    -7.953595    46.372719    35.881958    24.145380    -3.746805    -7.673203    17.914154    -13.216337    -6.534214    -4.806104    12.642454    -38.163227    6.600451    -6.178172    32.203125    16.737684    -11.297388    -10.676598    -20.483137    3.280093    1.376706    -3.626756    -18.144978    -47.188671    -14.088226    19.916098    51.001995    -12.395599    12.974884    -2.286784    -8.250541    0.619083    -6.112955    -0.675536    
-6.511837    81.268631    111.589981    -0.283576    -21.558746    175.854401    -0.533837    -6.436041    -1.901593    4.406101    4.782750    -2.055697    7.167206    8.160471    2.912051    -2.343722    -7.009777    2.016200    3.472860    8.253294    -9.352372    -32.253990    29.064528    -61.104122    13.031194    -2.805351    -29.494978    15.310413    0.152791    -3.621996    7.459971    17.388897    -7.966870    46.326740    35.696598    24.235067    -3.798332    -7.764660    18.010647    -13.298838    -6.610630    -4.810073    13.070882    -38.172295    7.073354    -6.360606    32.447643    16.979092    -11.342153    -10.719523    -20.560732    3.328825    1.336628    -3.680890    -19.385021    -47.692650    -14.983843    20.050062    51.956627    -12.436509    13.416317    -2.025015    -8.025481    0.665812    -6.212342    -0.726637    
-6.476316    81.199883    111.618248    -0.287567    -21.546545    175.468399    -0.504372    -6.356068    -1.873058    4.418151    4.769845    -2.029199    7.178895    8.050859    3.044588    -2.530028    -6.852209    2.111768    3.460704    8.269274    -9.299716    -32.491135    29.111441    -60.352024    12.686248    -2.733863    -29.004791    15.302279    0.083584    -3.552800    7.447814    17.366940    -7.977005    46.290348    35.515884    24.307028    -3.843869    -7.841606    18.091049    -13.373789    -6.673931    -4.816549    13.509619    -38.202366    7.561899    -6.543375    32.726444    17.194229    -11.392622    -10.760401    -20.646715    3.381490    1.283167    -3.739470    -20.665421    -48.148903    -15.870193    20.116028    52.851292    -12.426372    13.789211    -1.788893    -7.872382    0.709349    -6.310058    -0.774268    
-6.427279    81.121559    111.645195    -0.286476    -21.536381    175.116959    -0.470912    -6.278461    -1.846604    4.432485    4.757181    -2.005033    7.178958    7.932981    3.167869    -2.701084    -6.704323    2.201359    3.452006    8.280210    -9.246026    -32.733082    29.148628    -59.585602    12.311436    -2.657820    -28.444052    15.303225    0.006490    -3.482519    7.434834    17.346436    -7.984223    46.263714    35.341167    24.360910    -3.883266    -7.903155    18.155006    -13.439211    -6.723483    -4.824501    13.959940    -38.253460    8.063754    -6.727764    33.036873    17.386480    -11.448197    -10.798093    -20.741661    3.437952    1.216273    -3.802349    -21.980280    -48.552940    -16.740248    20.113304    53.674644    -12.361993    14.097284    -1.574781    -7.786548    0.750087    -6.401084    -0.818850    
